<?xml version="1.0" encoding="utf-8"?>
<!-- Generator: Adobe Illustrator 25.2.3, SVG Export Plug-In . SVG Version: 6.00 Build 0)  -->
<svg version="1.1" id="Layer_1" xmlns="http://www.w3.org/2000/svg" xmlns:xlink="http://www.w3.org/1999/xlink" x="0px" y="0px"
	 viewBox="0 0 30 30" style="enable-background:new 0 0 30 30;" xml:space="preserve">
<style type="text/css">
	.st0{fill:#09479A;}
</style>
<g>
	<path class="st0" d="M15.42,4.59c0.43,0,0.83,0.13,1.18,0.38l8.59,6.24c0.7,0.51,1,1.41,0.73,2.24l-3.28,10.1
		c-0.27,0.83-1.03,1.38-1.9,1.38H10.11c-0.87,0-1.63-0.56-1.9-1.38l-3.28-10.1c-0.27-0.83,0.02-1.73,0.73-2.24l8.59-6.24
		C14.59,4.73,14.99,4.59,15.42,4.59 M15.42,1.59c-1.03,0-2.06,0.32-2.94,0.95l-8.6,6.25c-1.75,1.27-2.49,3.53-1.82,5.59l3.28,10.1
		c0.67,2.06,2.59,3.45,4.76,3.45h10.62c2.17,0,4.09-1.39,4.76-3.45l3.28-10.1c0.67-2.06-0.06-4.32-1.82-5.59l-8.59-6.24
		C17.48,1.91,16.45,1.59,15.42,1.59L15.42,1.59z"/>
</g>
</svg>
