<?xml version="1.0" encoding="utf-8"?>
<!-- Generator: Adobe Illustrator 25.2.3, SVG Export Plug-In . SVG Version: 6.00 Build 0)  -->
<svg version="1.1" id="Layer_1" xmlns="http://www.w3.org/2000/svg" xmlns:xlink="http://www.w3.org/1999/xlink" x="0px" y="0px"
	 viewBox="0 0 30 30" style="enable-background:new 0 0 30 30;" xml:space="preserve">
<style type="text/css">
	.st0{fill:#F3F0EB;}
</style>
<g>
	<path class="st0" d="M24,4c1.1,0,2,0.9,2,2v18c0,1.1-0.9,2-2,2H6c-1.1,0-2-0.9-2-2V6c0-1.1,0.9-2,2-2H24 M24,1H6C3.24,1,1,3.24,1,6
		v18c0,2.76,2.24,5,5,5h18c2.76,0,5-2.24,5-5V6C29,3.24,26.76,1,24,1L24,1z"/>
</g>
</svg>
